{
    "asset" : {
        "generator" : "Khronos glTF Blender I/O v3.4.50",
        "version" : "2.0"
    },
    "scene" : 0,
    "scenes" : [
        {
            "name" : "Scene",
            "nodes" : [
                6
            ]
        }
    ],
    "nodes" : [
        {
            "mesh" : 0,
            "name" : "mobile_base_frame_wheel_left_front",
            "translation" : [
                0.850006103515625,
                0.25,
                0.5000038146972656
            ]
        },
        {
            "mesh" : 1,
            "name" : "mobile_base_frame_wheel_left_middle",
            "translation" : [
                0.850006103515625,
                0.25,
                3.814697265625e-06
            ]
        },
        {
            "mesh" : 2,
            "name" : "mobile_base_frame_wheel_left_rear",
            "translation" : [
                0.850006103515625,
                0.25,
                -0.4999961853027344
            ]
        },
        {
            "mesh" : 3,
            "name" : "mobile_base_frame_wheel_right_front",
            "translation" : [
                -0.8499984741210938,
                0.25,
                0.5000038146972656
            ]
        },
        {
            "mesh" : 4,
            "name" : "mobile_base_frame_wheel_right_middle",
            "translation" : [
                -0.8499984741210938,
                0.25,
                3.814697265625e-06
            ]
        },
        {
            "mesh" : 5,
            "name" : "mobile_base_frame_wheel_right_rear",
            "translation" : [
                -0.8499984741210938,
                0.25,
                -0.4999961853027344
            ]
        },
        {
            "children" : [
                0,
                1,
                2,
                3,
                4,
                5
            ],
            "mesh" : 6,
            "name" : "mobile_base_frame"
        }
    ],
    "materials" : [
        {
            "name" : "spacebits_texture",
            "pbrMetallicRoughness" : {
                "baseColorTexture" : {
                    "index" : 0
                },
                "metallicFactor" : 0,
                "roughnessFactor" : 0.6000000238418579
            }
        }
    ],
    "meshes" : [
        {
            "name" : "Cylinder.585",
            "primitives" : [
                {
                    "attributes" : {
                        "POSITION" : 0,
                        "TEXCOORD_0" : 1,
                        "NORMAL" : 2
                    },
                    "indices" : 3,
                    "material" : 0
                }
            ]
        },
        {
            "name" : "Cylinder.604",
            "primitives" : [
                {
                    "attributes" : {
                        "POSITION" : 4,
                        "TEXCOORD_0" : 5,
                        "NORMAL" : 6
                    },
                    "indices" : 3,
                    "material" : 0
                }
            ]
        },
        {
            "name" : "Cylinder.606",
            "primitives" : [
                {
                    "attributes" : {
                        "POSITION" : 7,
                        "TEXCOORD_0" : 8,
                        "NORMAL" : 9
                    },
                    "indices" : 3,
                    "material" : 0
                }
            ]
        },
        {
            "name" : "Cylinder.615",
            "primitives" : [
                {
                    "attributes" : {
                        "POSITION" : 10,
                        "TEXCOORD_0" : 11,
                        "NORMAL" : 12
                    },
                    "indices" : 13,
                    "material" : 0
                }
            ]
        },
        {
            "name" : "Cylinder.612",
            "primitives" : [
                {
                    "attributes" : {
                        "POSITION" : 14,
                        "TEXCOORD_0" : 15,
                        "NORMAL" : 16
                    },
                    "indices" : 13,
                    "material" : 0
                }
            ]
        },
        {
            "name" : "Cylinder.610",
            "primitives" : [
                {
                    "attributes" : {
                        "POSITION" : 17,
                        "TEXCOORD_0" : 18,
                        "NORMAL" : 19
                    },
                    "indices" : 13,
                    "material" : 0
                }
            ]
        },
        {
            "name" : "Cylinder.616",
            "primitives" : [
                {
                    "attributes" : {
                        "POSITION" : 20,
                        "TEXCOORD_0" : 21,
                        "NORMAL" : 22
                    },
                    "indices" : 23,
                    "material" : 0
                }
            ]
        }
    ],
    "textures" : [
        {
            "sampler" : 0,
            "source" : 0
        }
    ],
    "images" : [
        {
            "mimeType" : "image/png",
            "name" : "spacebits_texture",
            "uri" : "spacebits_texture.png"
        }
    ],
    "accessors" : [
        {
            "bufferView" : 0,
            "componentType" : 5126,
            "count" : 162,
            "max" : [
                0.1486521065235138,
                0.24999777972698212,
                0.2499568909406662
            ],
            "min" : [
                -0.15134790539741516,
                -0.2500022351741791,
                -0.250043123960495
            ],
            "type" : "VEC3"
        },
        {
            "bufferView" : 1,
            "componentType" : 5126,
            "count" : 162,
            "type" : "VEC2"
        },
        {
            "bufferView" : 2,
            "componentType" : 5126,
            "count" : 162,
            "type" : "VEC3"
        },
        {
            "bufferView" : 3,
            "componentType" : 5123,
            "count" : 408,
            "type" : "SCALAR"
        },
        {
            "bufferView" : 4,
            "componentType" : 5126,
            "count" : 162,
            "max" : [
                0.1486521065235138,
                0.24999777972698212,
                0.2499568909406662
            ],
            "min" : [
                -0.15134790539741516,
                -0.2500022351741791,
                -0.250043123960495
            ],
            "type" : "VEC3"
        },
        {
            "bufferView" : 5,
            "componentType" : 5126,
            "count" : 162,
            "type" : "VEC2"
        },
        {
            "bufferView" : 6,
            "componentType" : 5126,
            "count" : 162,
            "type" : "VEC3"
        },
        {
            "bufferView" : 7,
            "componentType" : 5126,
            "count" : 162,
            "max" : [
                0.1486521065235138,
                0.24999777972698212,
                0.2499568909406662
            ],
            "min" : [
                -0.15134790539741516,
                -0.2500022351741791,
                -0.250043123960495
            ],
            "type" : "VEC3"
        },
        {
            "bufferView" : 8,
            "componentType" : 5126,
            "count" : 162,
            "type" : "VEC2"
        },
        {
            "bufferView" : 9,
            "componentType" : 5126,
            "count" : 162,
            "type" : "VEC3"
        },
        {
            "bufferView" : 10,
            "componentType" : 5126,
            "count" : 162,
            "max" : [
                0.15134790539741516,
                0.24999777972698212,
                0.2500431537628174
            ],
            "min" : [
                -0.14865215122699738,
                -0.2500022351741791,
                -0.2499569058418274
            ],
            "type" : "VEC3"
        },
        {
            "bufferView" : 11,
            "componentType" : 5126,
            "count" : 162,
            "type" : "VEC2"
        },
        {
            "bufferView" : 12,
            "componentType" : 5126,
            "count" : 162,
            "type" : "VEC3"
        },
        {
            "bufferView" : 13,
            "componentType" : 5123,
            "count" : 408,
            "type" : "SCALAR"
        },
        {
            "bufferView" : 14,
            "componentType" : 5126,
            "count" : 162,
            "max" : [
                0.15134790539741516,
                0.24999777972698212,
                0.2500431537628174
            ],
            "min" : [
                -0.14865215122699738,
                -0.2500022351741791,
                -0.2499569058418274
            ],
            "type" : "VEC3"
        },
        {
            "bufferView" : 15,
            "componentType" : 5126,
            "count" : 162,
            "type" : "VEC2"
        },
        {
            "bufferView" : 16,
            "componentType" : 5126,
            "count" : 162,
            "type" : "VEC3"
        },
        {
            "bufferView" : 17,
            "componentType" : 5126,
            "count" : 162,
            "max" : [
                0.15134790539741516,
                0.24999777972698212,
                0.2500431537628174
            ],
            "min" : [
                -0.14865215122699738,
                -0.2500022351741791,
                -0.2499569058418274
            ],
            "type" : "VEC3"
        },
        {
            "bufferView" : 18,
            "componentType" : 5126,
            "count" : 162,
            "type" : "VEC2"
        },
        {
            "bufferView" : 19,
            "componentType" : 5126,
            "count" : 162,
            "type" : "VEC3"
        },
        {
            "bufferView" : 20,
            "componentType" : 5126,
            "count" : 620,
            "max" : [
                0.7000002264976501,
                0.5,
                1.0199999809265137
            ],
            "min" : [
                -0.7000001668930054,
                0.15999694168567657,
                -1.0199999809265137
            ],
            "type" : "VEC3"
        },
        {
            "bufferView" : 21,
            "componentType" : 5126,
            "count" : 620,
            "type" : "VEC2"
        },
        {
            "bufferView" : 22,
            "componentType" : 5126,
            "count" : 620,
            "type" : "VEC3"
        },
        {
            "bufferView" : 23,
            "componentType" : 5123,
            "count" : 900,
            "type" : "SCALAR"
        }
    ],
    "bufferViews" : [
        {
            "buffer" : 0,
            "byteLength" : 1944,
            "byteOffset" : 0,
            "target" : 34962
        },
        {
            "buffer" : 0,
            "byteLength" : 1296,
            "byteOffset" : 1944,
            "target" : 34962
        },
        {
            "buffer" : 0,
            "byteLength" : 1944,
            "byteOffset" : 3240,
            "target" : 34962
        },
        {
            "buffer" : 0,
            "byteLength" : 816,
            "byteOffset" : 5184,
            "target" : 34963
        },
        {
            "buffer" : 0,
            "byteLength" : 1944,
            "byteOffset" : 6000,
            "target" : 34962
        },
        {
            "buffer" : 0,
            "byteLength" : 1296,
            "byteOffset" : 7944,
            "target" : 34962
        },
        {
            "buffer" : 0,
            "byteLength" : 1944,
            "byteOffset" : 9240,
            "target" : 34962
        },
        {
            "buffer" : 0,
            "byteLength" : 1944,
            "byteOffset" : 11184,
            "target" : 34962
        },
        {
            "buffer" : 0,
            "byteLength" : 1296,
            "byteOffset" : 13128,
            "target" : 34962
        },
        {
            "buffer" : 0,
            "byteLength" : 1944,
            "byteOffset" : 14424,
            "target" : 34962
        },
        {
            "buffer" : 0,
            "byteLength" : 1944,
            "byteOffset" : 16368,
            "target" : 34962
        },
        {
            "buffer" : 0,
            "byteLength" : 1296,
            "byteOffset" : 18312,
            "target" : 34962
        },
        {
            "buffer" : 0,
            "byteLength" : 1944,
            "byteOffset" : 19608,
            "target" : 34962
        },
        {
            "buffer" : 0,
            "byteLength" : 816,
            "byteOffset" : 21552,
            "target" : 34963
        },
        {
            "buffer" : 0,
            "byteLength" : 1944,
            "byteOffset" : 22368,
            "target" : 34962
        },
        {
            "buffer" : 0,
            "byteLength" : 1296,
            "byteOffset" : 24312,
            "target" : 34962
        },
        {
            "buffer" : 0,
            "byteLength" : 1944,
            "byteOffset" : 25608,
            "target" : 34962
        },
        {
            "buffer" : 0,
            "byteLength" : 1944,
            "byteOffset" : 27552,
            "target" : 34962
        },
        {
            "buffer" : 0,
            "byteLength" : 1296,
            "byteOffset" : 29496,
            "target" : 34962
        },
        {
            "buffer" : 0,
            "byteLength" : 1944,
            "byteOffset" : 30792,
            "target" : 34962
        },
        {
            "buffer" : 0,
            "byteLength" : 7440,
            "byteOffset" : 32736,
            "target" : 34962
        },
        {
            "buffer" : 0,
            "byteLength" : 4960,
            "byteOffset" : 40176,
            "target" : 34962
        },
        {
            "buffer" : 0,
            "byteLength" : 7440,
            "byteOffset" : 45136,
            "target" : 34962
        },
        {
            "buffer" : 0,
            "byteLength" : 1800,
            "byteOffset" : 52576,
            "target" : 34963
        }
    ],
    "samplers" : [
        {
            "magFilter" : 9729,
            "minFilter" : 9987
        }
    ],
    "buffers" : [
        {
            "byteLength" : 54376,
            "uri" : "mobile_base_frame.bin"
        }
    ]
}
